<svg xmlns="http://www.w3.org/2000/svg" version="1.1" xmlns:xlink="http://www.w3.org/1999/xlink" xmlns:svgjs="http://svgjs.dev/svgjs" width="1500" height="1937" viewBox="0 0 1500 1937"><g transform="matrix(1,0,0,1,-3.327005008969536,-3.1241935483870975)"><svg viewBox="0 0 192 248" data-background-color="#000000" preserveAspectRatio="xMidYMid meet" height="1937" width="1500" xmlns="http://www.w3.org/2000/svg" xmlns:xlink="http://www.w3.org/1999/xlink"><g id="tight-bounds" transform="matrix(1,0,0,1,0.4258566411481013,0.4000000000000057)"><svg viewBox="0 0 191.1482867177038 247.2" height="247.2" width="191.1482867177038"><g><svg viewBox="0 0 395.52 511.5010219494919" height="247.2" width="191.1482867177038"><g transform="matrix(1,0,0,1,0,304.31006083430486)"><svg viewBox="0 0 395.52 207.1909611151871" height="207.1909611151871" width="395.52"><g id="textblocktransform"><svg viewBox="0 0 395.52 207.1909611151871" height="207.1909611151871" width="395.52" id="textblock"><g><svg viewBox="0 0 395.52 207.1909611151871" height="207.1909611151871" width="395.52"><g transform="matrix(1,0,0,1,0,0)"><svg width="395.52" viewBox="4.25 -35.35 68.15 35.7" height="207.1909611151871" data-palette-color="url(#db551689-9ebe-484c-a3c5-a8541e1a69dc)"></svg></g></svg></g></svg></g></svg></g><g transform="matrix(1,0,0,1,94.51778291907647,0)"><svg viewBox="0 0 206.48443416184705 206.48443416184705" height="206.48443416184705" width="206.48443416184705"><g><svg></svg></g><g id="icon-0"><svg viewBox="0 0 206.48443416184705 206.48443416184705" height="206.48443416184705" width="206.48443416184705"><g></g><g transform="matrix(1,0,0,1,62.628672490015845,62.628672490015845)"><svg viewBox="0 0 81.22708918181536 81.22708918181536" height="81.22708918181536" width="81.22708918181536"><g><svg xmlns="http://www.w3.org/2000/svg" xmlns:xlink="http://www.w3.org/1999/xlink" version="1.1" x="0" y="0" viewBox="0.5 0.5 71 71" enable-background="new 0 0 72 72" xml:space="preserve" height="81.22708918181536" width="81.22708918181536" class="icon-dxe-0" data-fill-palette-color="accent" id="dxe-0"></svg></g></svg></g></svg></g></svg></g><g></g></svg></g><defs></defs><mask id="1d26e075-098d-4032-b3f7-d57db4fe4deb"><g id="SvgjsG4857"><svg viewBox="0 0 191.1482867177038 247.2" height="247.2" width="191.1482867177038"><g><svg viewBox="0 0 395.52 511.5010219494919" height="247.2" width="191.1482867177038"><g transform="matrix(1,0,0,1,0,304.31006083430486)"><svg viewBox="0 0 395.52 207.1909611151871" height="207.1909611151871" width="395.52"><g id="SvgjsG4856"><svg viewBox="0 0 395.52 207.1909611151871" height="207.1909611151871" width="395.52" id="SvgjsSvg4855"><g><svg viewBox="0 0 395.52 207.1909611151871" height="207.1909611151871" width="395.52"><g transform="matrix(1,0,0,1,0,0)"><svg width="395.52" viewBox="4.25 -35.35 68.15 35.7" height="207.1909611151871" data-palette-color="url(#db551689-9ebe-484c-a3c5-a8541e1a69dc)"><path d="M4.25-35L15.8-35Q21.6-35 25.73-32.88 29.85-30.75 32.08-26.8 34.3-22.85 34.3-17.4L34.3-17.4Q34.3-12 32.08-8.1 29.85-4.2 25.73-2.1 21.6 0 15.8 0L15.8 0 4.25 0 4.25-35ZM8.25-3.5L15.8-3.5Q22.95-3.5 26.6-7.15 30.25-10.8 30.25-17.4L30.25-17.4Q30.25-24.05 26.6-27.78 22.95-31.5 15.8-31.5L15.8-31.5 8.25-31.5 8.25-3.5ZM71.6-25.8L68.1-24.5Q66.2-28.25 63.05-30.03 59.9-31.8 56.05-31.8L56.05-31.8Q52.25-31.8 49.2-30.05 46.15-28.3 44.4-25.1 42.65-21.9 42.65-17.5L42.65-17.5Q42.65-13.15 44.4-9.95 46.15-6.75 49.2-5 52.25-3.25 56.05-3.25L56.05-3.25Q58.9-3.25 61.35-4.23 63.8-5.2 65.6-7.03 67.4-8.85 68.35-11.4L68.35-11.4 68.35-15.45 56.35-15.45 56.35-18.7 72.4-18.7 72.4-11.2Q71.25-7.85 68.9-5.25 66.55-2.65 63.25-1.15 59.95 0.35 56.05 0.35L56.05 0.35Q52.35 0.35 49.17-0.95 46-2.25 43.62-4.63 41.25-7 39.92-10.28 38.6-13.55 38.6-17.5L38.6-17.5Q38.6-21.45 39.92-24.73 41.25-28 43.62-30.38 46-32.75 49.17-34.05 52.35-35.35 56.05-35.35L56.05-35.35Q59.5-35.35 62.52-34.23 65.55-33.1 67.9-30.98 70.25-28.85 71.6-25.8L71.6-25.8Z" opacity="1" transform="matrix(1,0,0,1,0,0)" fill="white" class="wordmark-text-0" id="SvgjsPath4854"></path></svg></g></svg></g></svg></g></svg></g><g transform="matrix(1,0,0,1,94.51778291907647,0)"><svg viewBox="0 0 206.48443416184705 206.48443416184705" height="206.48443416184705" width="206.48443416184705"><g><svg></svg></g><g id="SvgjsG4853"><svg viewBox="0 0 206.48443416184705 206.48443416184705" height="206.48443416184705" width="206.48443416184705"><g><path d="M0 103.242c0-57.019 46.223-103.242 103.242-103.242 57.019 0 103.242 46.223 103.242 103.242 0 57.019-46.223 103.242-103.242 103.242-57.019 0-103.242-46.223-103.242-103.242zM103.242 187.8c46.7 0 84.558-37.858 84.558-84.558 0-46.7-37.858-84.558-84.558-84.557-46.7 0-84.558 37.858-84.557 84.557 0 46.7 37.858 84.558 84.557 84.558z" fill="black" stroke="transparent"></path></g><g transform="matrix(1,0,0,1,62.628672490015845,62.628672490015845)"><svg viewBox="0 0 81.22708918181536 81.22708918181536" height="81.22708918181536" width="81.22708918181536"><g><svg xmlns="http://www.w3.org/2000/svg" xmlns:xlink="http://www.w3.org/1999/xlink" version="1.1" x="0" y="0" viewBox="0.5 0.5 71 71" enable-background="new 0 0 72 72" xml:space="preserve" height="81.22708918181536" width="81.22708918181536" class="icon-dxe-0" data-fill-palette-color="accent" id="SvgjsSvg4852"><g fill="black"><g fill="black"><path d="M69.8 0.5H2.2C1.3 0.5 0.5 1.3 0.5 2.2V69.8C0.5 70.7 1.3 71.5 2.2 71.5H69.8C70.7 71.5 71.5 70.7 71.5 69.8V2.2C71.5 1.3 70.7 0.5 69.8 0.5M25 4.5C26.2 4.5 27.1 5.4 27.1 6.6S26.2 8.7 25 8.7 22.9 7.8 22.9 6.6 23.8 4.5 25 4.5M16.1 4.5C17.3 4.5 18.2 5.4 18.2 6.6S17.3 8.7 16.1 8.7 14 7.8 14 6.6 15 4.5 16.1 4.5M7.3 4.5C8.5 4.5 9.4 5.4 9.4 6.6S8.5 8.7 7.3 8.7 5.2 7.8 5.2 6.6 6.1 4.5 7.3 4.5M66.5 64.8C66.5 65.7 65.7 66.5 64.8 66.5H7.2C6.3 66.5 5.5 65.7 5.5 64.8V16.5C5.5 15.6 6.3 14.8 7.2 14.8H64.8C65.7 14.8 66.5 15.6 66.5 16.5z" fill="black"></path></g><g fill="black"><g fill="black"><g fill="black"><path d="M50.2 51.4C49.5 51.4 48.8 51.1 48.3 50.5 47.4 49.5 47.6 47.9 48.5 47L54.4 41.1C54.9 40.6 54.9 39.7 54.4 39.2L48.5 33.3C47.6 32.4 47.4 30.9 48.2 29.9 49.2 28.7 50.9 28.7 51.9 29.7L60.7 38.5C61.2 39 61.4 39.6 61.4 40.3S61.1 41.6 60.7 42.1L52 50.7C51.5 51.1 50.8 51.4 50.2 51.4" fill="black"></path></g><g fill="black"><path d="M21.8 51.4C21.2 51.4 20.5 51.2 20 50.7L11.2 41.9C10.7 41.4 10.5 40.8 10.5 40.1S10.8 38.8 11.2 38.3L19.9 29.6C20.8 28.7 22.3 28.5 23.3 29.3 24.5 30.3 24.5 32 23.5 33L17.5 39C17 39.5 17 40.4 17.5 40.9L23.4 46.8C24.3 47.7 24.5 49.3 23.6 50.3 23.2 51.1 22.5 51.4 21.8 51.4" fill="black"></path></g></g><g fill="black"><path d="M30.7 57.4C30.4 57.4 30.1 57.4 29.9 57.3 28.6 56.8 27.9 55.4 28.4 54.1L38.9 24.6C39.4 23.3 40.8 22.6 42.1 23.1S44.1 25 43.6 26.3L33.1 55.7C32.7 56.7 31.8 57.4 30.7 57.4" fill="black"></path></g></g></g></svg></g></svg></g></svg></g></svg></g><g></g></svg></g><defs><mask></mask></defs></svg><rect width="191.1482867177038" height="247.2" fill="black" stroke="none" visibility="hidden"></rect></g></mask><linearGradient x1="0" x2="1" y1="0.5" y2="0.5" id="db551689-9ebe-484c-a3c5-a8541e1a69dc"><stop stop-color="#ffa62e" offset="0"></stop><stop stop-color="#f71b3d" offset="1"></stop></linearGradient><rect width="191.1482867177038" height="247.2" fill="url(#db551689-9ebe-484c-a3c5-a8541e1a69dc)" mask="url(#1d26e075-098d-4032-b3f7-d57db4fe4deb)" data-fill-palette-color="primary"></rect><mask id="3a0e4925-0516-4e22-864d-cbeb468fcd66"><g id="SvgjsG4880"><svg viewBox="0 0 191.1482867177038 247.2" height="247.2" width="191.1482867177038"><g><svg viewBox="0 0 395.52 511.5010219494919" height="247.2" width="191.1482867177038"><g transform="matrix(1,0,0,1,0,304.31006083430486)"><svg viewBox="0 0 395.52 207.1909611151871" height="207.1909611151871" width="395.52"><g id="SvgjsG4879"><svg viewBox="0 0 395.52 207.1909611151871" height="207.1909611151871" width="395.52" id="SvgjsSvg4878"><g><svg viewBox="0 0 395.52 207.1909611151871" height="207.1909611151871" width="395.52"><g transform="matrix(1,0,0,1,0,0)"><svg width="395.52" viewBox="4.25 -35.35 68.15 35.7" height="207.1909611151871" data-palette-color="url(#db551689-9ebe-484c-a3c5-a8541e1a69dc)"></svg></g></svg></g></svg></g></svg></g><g transform="matrix(1,0,0,1,94.51778291907647,0)"><svg viewBox="0 0 206.48443416184705 206.48443416184705" height="206.48443416184705" width="206.48443416184705"><g><svg></svg></g><g id="SvgjsG4877"><svg viewBox="0 0 206.48443416184705 206.48443416184705" height="206.48443416184705" width="206.48443416184705"><g><path d="M0 103.242c0-57.019 46.223-103.242 103.242-103.242 57.019 0 103.242 46.223 103.242 103.242 0 57.019-46.223 103.242-103.242 103.242-57.019 0-103.242-46.223-103.242-103.242zM103.242 187.8c46.7 0 84.558-37.858 84.558-84.558 0-46.7-37.858-84.558-84.558-84.557-46.7 0-84.558 37.858-84.557 84.557 0 46.7 37.858 84.558 84.557 84.558z" fill="white" stroke="transparent"></path></g><g transform="matrix(1,0,0,1,62.628672490015845,62.628672490015845)"><svg viewBox="0 0 81.22708918181536 81.22708918181536" height="81.22708918181536" width="81.22708918181536"><g><svg xmlns="http://www.w3.org/2000/svg" xmlns:xlink="http://www.w3.org/1999/xlink" version="1.1" x="0" y="0" viewBox="0.5 0.5 71 71" enable-background="new 0 0 72 72" xml:space="preserve" height="81.22708918181536" width="81.22708918181536" class="icon-dxe-0" data-fill-palette-color="accent" id="SvgjsSvg4876"><g fill="white"><g fill="white"><path d="M69.8 0.5H2.2C1.3 0.5 0.5 1.3 0.5 2.2V69.8C0.5 70.7 1.3 71.5 2.2 71.5H69.8C70.7 71.5 71.5 70.7 71.5 69.8V2.2C71.5 1.3 70.7 0.5 69.8 0.5M25 4.5C26.2 4.5 27.1 5.4 27.1 6.6S26.2 8.7 25 8.7 22.9 7.8 22.9 6.6 23.8 4.5 25 4.5M16.1 4.5C17.3 4.5 18.2 5.4 18.2 6.6S17.3 8.7 16.1 8.7 14 7.8 14 6.6 15 4.5 16.1 4.5M7.3 4.5C8.5 4.5 9.4 5.4 9.4 6.6S8.5 8.7 7.3 8.7 5.2 7.8 5.2 6.6 6.1 4.5 7.3 4.5M66.5 64.8C66.5 65.7 65.7 66.5 64.8 66.5H7.2C6.3 66.5 5.5 65.7 5.5 64.8V16.5C5.5 15.6 6.3 14.8 7.2 14.8H64.8C65.7 14.8 66.5 15.6 66.5 16.5z" fill="white"></path></g><g fill="white"><g fill="white"><g fill="white"><path d="M50.2 51.4C49.5 51.4 48.8 51.1 48.3 50.5 47.4 49.5 47.6 47.9 48.5 47L54.4 41.1C54.9 40.6 54.9 39.7 54.4 39.2L48.5 33.3C47.6 32.4 47.4 30.9 48.2 29.9 49.2 28.7 50.9 28.7 51.9 29.7L60.7 38.5C61.2 39 61.4 39.6 61.4 40.3S61.1 41.6 60.7 42.1L52 50.7C51.5 51.1 50.8 51.4 50.2 51.4" fill="white"></path></g><g fill="white"><path d="M21.8 51.4C21.2 51.4 20.5 51.2 20 50.7L11.2 41.9C10.7 41.4 10.5 40.8 10.5 40.1S10.8 38.8 11.2 38.3L19.9 29.6C20.8 28.7 22.3 28.5 23.3 29.3 24.5 30.3 24.5 32 23.5 33L17.5 39C17 39.5 17 40.4 17.5 40.9L23.4 46.8C24.3 47.7 24.5 49.3 23.6 50.3 23.2 51.1 22.5 51.4 21.8 51.4" fill="white"></path></g></g><g fill="white"><path d="M30.7 57.4C30.4 57.4 30.1 57.4 29.9 57.3 28.6 56.8 27.9 55.4 28.4 54.1L38.9 24.6C39.4 23.3 40.8 22.6 42.1 23.1S44.1 25 43.6 26.3L33.1 55.7C32.7 56.7 31.8 57.4 30.7 57.4" fill="white"></path></g></g></g></svg></g></svg></g></svg></g></svg></g><g></g></svg></g><defs><mask></mask></defs><mask><g id="SvgjsG4875"><svg viewBox="0 0 191.1482867177038 247.2" height="247.2" width="191.1482867177038"><g><svg viewBox="0 0 395.52 511.5010219494919" height="247.2" width="191.1482867177038"><g transform="matrix(1,0,0,1,0,304.31006083430486)"><svg viewBox="0 0 395.52 207.1909611151871" height="207.1909611151871" width="395.52"><g id="SvgjsG4874"><svg viewBox="0 0 395.52 207.1909611151871" height="207.1909611151871" width="395.52" id="SvgjsSvg4873"><g><svg viewBox="0 0 395.52 207.1909611151871" height="207.1909611151871" width="395.52"><g transform="matrix(1,0,0,1,0,0)"><svg width="395.52" viewBox="4.25 -35.35 68.15 35.7" height="207.1909611151871" data-palette-color="url(#db551689-9ebe-484c-a3c5-a8541e1a69dc)"><path d="M4.25-35L15.8-35Q21.6-35 25.73-32.88 29.85-30.75 32.08-26.8 34.3-22.85 34.3-17.4L34.3-17.4Q34.3-12 32.08-8.1 29.85-4.2 25.73-2.1 21.6 0 15.8 0L15.8 0 4.25 0 4.25-35ZM8.25-3.5L15.8-3.5Q22.95-3.5 26.6-7.15 30.25-10.8 30.25-17.4L30.25-17.4Q30.25-24.05 26.6-27.78 22.95-31.5 15.8-31.5L15.8-31.5 8.25-31.5 8.25-3.5ZM71.6-25.8L68.1-24.5Q66.2-28.25 63.05-30.03 59.9-31.8 56.05-31.8L56.05-31.8Q52.25-31.8 49.2-30.05 46.15-28.3 44.4-25.1 42.65-21.9 42.65-17.5L42.65-17.5Q42.65-13.15 44.4-9.95 46.15-6.75 49.2-5 52.25-3.25 56.05-3.25L56.05-3.25Q58.9-3.25 61.35-4.23 63.8-5.2 65.6-7.03 67.4-8.85 68.35-11.4L68.35-11.4 68.35-15.45 56.35-15.45 56.35-18.7 72.4-18.7 72.4-11.2Q71.25-7.85 68.9-5.25 66.55-2.65 63.25-1.15 59.95 0.35 56.05 0.35L56.05 0.35Q52.35 0.35 49.17-0.95 46-2.25 43.62-4.63 41.25-7 39.92-10.28 38.6-13.55 38.6-17.5L38.6-17.5Q38.6-21.45 39.92-24.73 41.25-28 43.62-30.38 46-32.75 49.17-34.05 52.35-35.35 56.05-35.35L56.05-35.35Q59.5-35.35 62.52-34.23 65.55-33.1 67.9-30.98 70.25-28.85 71.6-25.8L71.6-25.8Z" opacity="1" transform="matrix(1,0,0,1,0,0)" fill="black" class="wordmark-text-0" id="SvgjsPath4872"></path></svg></g></svg></g></svg></g></svg></g><g transform="matrix(1,0,0,1,94.51778291907647,0)"><svg viewBox="0 0 206.48443416184705 206.48443416184705" height="206.48443416184705" width="206.48443416184705"><g><svg></svg></g><g id="SvgjsG4871"><svg viewBox="0 0 206.48443416184705 206.48443416184705" height="206.48443416184705" width="206.48443416184705"><g><path d="M0 103.242c0-57.019 46.223-103.242 103.242-103.242 57.019 0 103.242 46.223 103.242 103.242 0 57.019-46.223 103.242-103.242 103.242-57.019 0-103.242-46.223-103.242-103.242zM103.242 187.8c46.7 0 84.558-37.858 84.558-84.558 0-46.7-37.858-84.558-84.558-84.557-46.7 0-84.558 37.858-84.557 84.557 0 46.7 37.858 84.558 84.557 84.558z" fill="black" stroke="transparent"></path></g><g transform="matrix(1,0,0,1,62.628672490015845,62.628672490015845)"><svg viewBox="0 0 81.22708918181536 81.22708918181536" height="81.22708918181536" width="81.22708918181536"><g><svg xmlns="http://www.w3.org/2000/svg" xmlns:xlink="http://www.w3.org/1999/xlink" version="1.1" x="0" y="0" viewBox="0.5 0.5 71 71" enable-background="new 0 0 72 72" xml:space="preserve" height="81.22708918181536" width="81.22708918181536" class="icon-dxe-0" data-fill-palette-color="accent" id="SvgjsSvg4870"><g fill="black"><g fill="black"><path d="M69.8 0.5H2.2C1.3 0.5 0.5 1.3 0.5 2.2V69.8C0.5 70.7 1.3 71.5 2.2 71.5H69.8C70.7 71.5 71.5 70.7 71.5 69.8V2.2C71.5 1.3 70.7 0.5 69.8 0.5M25 4.5C26.2 4.5 27.1 5.4 27.1 6.6S26.2 8.7 25 8.7 22.9 7.8 22.9 6.6 23.8 4.5 25 4.5M16.1 4.5C17.3 4.5 18.2 5.4 18.2 6.6S17.3 8.7 16.1 8.7 14 7.8 14 6.6 15 4.5 16.1 4.5M7.3 4.5C8.5 4.5 9.4 5.4 9.4 6.6S8.5 8.7 7.3 8.7 5.2 7.8 5.2 6.6 6.1 4.5 7.3 4.5M66.5 64.8C66.5 65.7 65.7 66.5 64.8 66.5H7.2C6.3 66.5 5.5 65.7 5.5 64.8V16.5C5.5 15.6 6.3 14.8 7.2 14.8H64.8C65.7 14.8 66.5 15.6 66.5 16.5z" fill="black"></path></g><g fill="black"><g fill="black"><g fill="black"><path d="M50.2 51.4C49.5 51.4 48.8 51.1 48.3 50.5 47.4 49.5 47.6 47.9 48.5 47L54.4 41.1C54.9 40.6 54.9 39.7 54.4 39.2L48.5 33.3C47.6 32.4 47.4 30.9 48.2 29.9 49.2 28.7 50.9 28.7 51.9 29.7L60.7 38.5C61.2 39 61.4 39.6 61.4 40.3S61.1 41.6 60.7 42.1L52 50.7C51.5 51.1 50.8 51.4 50.2 51.4" fill="black"></path></g><g fill="black"><path d="M21.8 51.4C21.2 51.4 20.5 51.2 20 50.7L11.2 41.9C10.7 41.4 10.5 40.8 10.5 40.1S10.8 38.8 11.2 38.3L19.9 29.6C20.8 28.7 22.3 28.5 23.3 29.3 24.5 30.3 24.5 32 23.5 33L17.5 39C17 39.5 17 40.4 17.5 40.9L23.4 46.8C24.3 47.7 24.5 49.3 23.6 50.3 23.2 51.1 22.5 51.4 21.8 51.4" fill="black"></path></g></g><g fill="black"><path d="M30.7 57.4C30.4 57.4 30.1 57.4 29.9 57.3 28.6 56.8 27.9 55.4 28.4 54.1L38.9 24.6C39.4 23.3 40.8 22.6 42.1 23.1S44.1 25 43.6 26.3L33.1 55.7C32.7 56.7 31.8 57.4 30.7 57.4" fill="black"></path></g></g></g></svg></g></svg></g></svg></g></svg></g><g></g></svg></g><defs><mask></mask></defs></svg><rect width="191.1482867177038" height="247.2" fill="black" stroke="none" visibility="hidden"></rect></g></mask></svg><rect width="191.1482867177038" height="247.2" fill="black" stroke="none" visibility="hidden"></rect></g></mask><linearGradient x1="0" x2="1" y1="0.5" y2="0.5" id="dd013fee-2090-4b6f-8ffb-1c23a5b54f1d"><stop stop-color="#ffa62e" offset="0"></stop><stop stop-color="#f71b3d" offset="1"></stop></linearGradient><rect width="191.1482867177038" height="247.2" fill="url(#dd013fee-2090-4b6f-8ffb-1c23a5b54f1d)" mask="url(#3a0e4925-0516-4e22-864d-cbeb468fcd66)" data-fill-palette-color="accent"></rect></svg><rect width="191.1482867177038" height="247.2" fill="none" stroke="none" visibility="hidden"></rect></g></svg></g></svg>